<?xml version="1.0"?>
<svg xmlns="http://www.w3.org/2000/svg" xmlns:xlink="http://www.w3.org/1999/xlink" xmlns:svgjs="http://svgjs.com/svgjs" version="1.1" width="512" height="512" x="0" y="0" viewBox="0 0 24 24" style="enable-background:new 0 0 512 512" xml:space="preserve" class=""><g><g xmlns="http://www.w3.org/2000/svg"><path d="m21.5 6h-3c-.276 0-.5-.224-.5-.5s.224-.5.5-.5h2.5v-2.5c0-.276.224-.5.5-.5s.5.224.5.5v3c0 .276-.224.5-.5.5z" fill="#ffffff" data-original="#000000" style="" class=""/></g><g xmlns="http://www.w3.org/2000/svg"><path d="m12 24c-6.617 0-12-5.383-12-12s5.383-12 12-12c3.8 0 7.408 1.83 9.653 4.895.163.223.115.536-.107.699-.225.162-.537.114-.699-.108-2.058-2.809-5.365-4.486-8.847-4.486-6.065 0-11 4.935-11 11s4.935 11 11 11 11-4.935 11-11c0-.512-.031-.979-.095-1.43-.039-.273.151-.526.425-.565.279-.04.526.151.565.425.071.497.105 1.011.105 1.57 0 6.617-5.383 12-12 12z" fill="#ffffff" data-original="#000000" style="" class=""/></g><g xmlns="http://www.w3.org/2000/svg"><path d="m16.743 18c-.033 0-.066-.001-.1-.004-5.657-.438-10.231-5.01-10.641-10.635-.025-.349.096-.694.33-.949.234-.252.553-.393.898-.395l2.298-.017c.573 0 1.067.384 1.206.935l.479 1.906c.122.483-.058.988-.459 1.288l-.831.619c.768 1.362 1.913 2.513 3.283 3.299l.643-.853c.302-.397.809-.576 1.291-.456l1.92.477c.553.138.94.63.94 1.198v2.354c0 .345-.14.664-.394.898-.233.215-.543.335-.863.335zm-7.211-11-2.295.017c-.084 0-.139.041-.17.074-.048.053-.072.123-.066.198.373 5.136 4.552 9.31 9.721 9.71.068.005.152-.019.206-.068.033-.031.072-.084.072-.165v-2.354c0-.107-.074-.2-.18-.227l-1.921-.477c-.099-.023-.194.011-.252.088l-.901 1.195c-.147.194-.413.253-.627.144-1.847-.944-3.368-2.475-4.285-4.31-.108-.217-.046-.48.148-.625l1.175-.875c.076-.057.11-.152.088-.242l-.48-1.907c-.028-.103-.122-.176-.233-.176z" fill="#ffffff" data-original="#000000" style="" class=""/></g></g></svg>
